<svg width="500" height="500" viewBox="0 0 500 500" xmlns="http://www.w3.org/2000/svg"><title>messenger-logo</title><defs><linearGradient x1="50%" y1="0%" x2="50%" y2="100.0013%" id="a"><stop stop-color="#00B2FF" offset="0%"/><stop stop-color="#006AFF" offset="100%"/></linearGradient></defs><g fill="none" fill-rule="evenodd"><path d="M215 .2163C93.8732.2163 0 88.9416 0 208.7706c0 62.6831 25.6962 116.844 67.5282 154.2636 3.504 3.158 5.6237 7.5272 5.7967 12.2425l1.168 38.2414c.3894 12.1992 12.978 20.1157 24.1389 15.2274l42.654-18.818c3.6337-1.6005 7.6569-1.9034 11.4637-.8651 19.5966 5.4074 40.491 8.2625 62.2505 8.2625 121.1268 0 215-88.7253 215-208.5543C430 88.9416 336.1268.2163 215 .2163z" fill="url(#a)" transform="translate(35 35)"/><path d="M120.9135 304.7666l63.159-100.1891c10.0362-15.9196 31.5794-19.8994 46.6337-8.6087l50.2244 37.679c4.6288 3.4609 10.9447 3.4176 15.5302-.0432l67.831-51.4788c9.0412-6.8783 20.8943 3.9798 14.7947 13.5835L315.9708 295.855c-10.0362 15.9195-31.5795 19.8994-46.6338 8.6087l-50.2243-37.679c-4.6288-3.4609-10.9447-3.4176-15.5302.0432L135.7082 318.35c-9.0412 6.8783-20.8943-3.9799-14.7947-13.5835z" fill="#FFF"/><path d="M35 35h430v430H35z"/></g></svg>